<?xml version="1.0" encoding="utf-8"?>
<!-- Generator: Adobe Illustrator 22.0.1, SVG Export Plug-In . SVG Version: 6.00 Build 0)  -->
<svg version="1.1" id="Capa_1" xmlns="http://www.w3.org/2000/svg" xmlns:xlink="http://www.w3.org/1999/xlink" x="0px" y="0px"
	 viewBox="0 0 24 24" style="enable-background:new 0 0 24 24;" xml:space="preserve">
<style type="text/css">
	.st0{fill:none;}
	.st1{fill:#FFFFFF;}
</style>
<path class="st0" d="M0,0h24v24H0V0z"/>
<path class="st1" d="M7.1,8.5L5.7,7.1C4.8,8.3,4.2,9.6,4.1,11h2C6.2,10.1,6.6,9.3,7.1,8.5z M6.1,13h-2c0.2,1.4,0.7,2.7,1.6,3.9
	l1.4-1.4C6.6,14.7,6.2,13.9,6.1,13z M7.1,18.3c1.2,0.9,2.5,1.4,3.9,1.6v-2c-0.9-0.1-1.7-0.5-2.5-1C8.5,16.9,7.1,18.3,7.1,18.3z
	 M13,4.1V1L8.4,5.6L13,10V6.1c2.8,0.5,5,2.9,5,5.9s-2.2,5.4-5,5.9v2c4-0.5,7-3.9,7-7.9S17,4.6,13,4.1z"/>
</svg>
