<?xml version="1.0" encoding="utf-8"?>
<!-- Generator: Adobe Illustrator 21.0.2, SVG Export Plug-In . SVG Version: 6.00 Build 0)  -->
<svg version="1.1" id="Layer_1" xmlns="http://www.w3.org/2000/svg" xmlns:xlink="http://www.w3.org/1999/xlink" x="0px" y="0px"
	 viewBox="0 0 1500 500" style="enable-background:new 0 0 1500 500;" xml:space="preserve">
<style type="text/css">
	.st0{fill:#020203;}
	.st1{fill:#1E1E1C;}
</style>
<ellipse class="st0" cx="155.1143951" cy="492.2366638" rx="131.5830994" ry="6.963325"/>
<path class="st0" d="M307.8276367,226.1890564l11.5255432,5.5226593l4.3220825-8.8842468l-17.0481873-8.1639252
	c-10.0848389-66.5119171-64.1107635-117.896553-131.3430023-124.1395416l-7.2034607-18.0086441l-9.1243744,3.8418427
	l5.522644,13.6865692c-14.1667938-0.4802322-28.3335876,1.2005692-42.0201492,4.8022995l-17.048172-6.2429886l-3.361618,9.3644943
	l5.5226517,1.9209213c-6.2429962,2.4011459-12.0057602,5.2825317-17.7685318,8.4040298l0,0l0,0
	c-27.1330032,15.1272507-48.9834862,38.6585236-61.9497032,66.7520142l-17.0481758,5.0424194l2.8813829,9.3644867
	l9.3644905-2.6412659c-5.0424175,14.1668091-7.9238014,28.8138275-8.644146,43.7009583L0,244.6779327l6.9633403,6.9633484
	l7.2034545-7.2034607c0.9604616,16.3278351,4.5621881,32.6556854,10.8051825,47.7829132l9.1243782-3.8418579
	c-25.2120953-60.9892426-2.8813839-131.3429718,52.8253365-167.1201477
	c-0.2401123,4.3220825-0.4802322,9.8447189-0.9604645,14.6470261l9.8447189,0.7203522
	c0.9604645-11.0452957,1.2005768-17.5284195,1.2005768-21.3702545
	c40.5794601-21.3702545,89.0827255-21.1301346,129.4220886,0.7203522
	c-49.2236023-4.8022995-94.3652496,11.285408-131.1028748,47.3026886
	c-23.0510559,23.0510406-41.2998085,50.6642914-53.5456772,80.9187927l9.3644905,3.361618
	c6.9633369-17.2882843,15.847599-33.6161194,26.6527824-48.7433624l0.9604645,12.0057526l9.8447189-0.9604645l-1.9209213-22.8109436
	c30.0143967-36.7376251,80.4385757-73.955452,156.7952271-58.8282166
	c-31.2149963,6.4831085-60.9892731,19.6894379-86.6815948,38.6585388l-26.8928986-5.7627563l-2.1610413,9.604599
	l18.7289734,4.081955c-25.9324341,20.40979-49.9439468,47.5427856-72.0345459,80.9188232l-1.4406891,2.1610413l8.1639099,5.522644
	l1.4406891-2.1610413c48.0230408-72.7548981,105.6506653-114.5349121,171.4422455-124.1395264L166.3998108,225.46875
	l-25.9324341-0.960495l-0.4802399,9.8447266l16.808075,0.7203522l-75.3961639,76.1165161l6.9633408,6.9633179
	L191.611908,213.9431915l-0.2401123,19.6894379l9.8447266,0.2401123l0.4802246-30.0144043l54.7462463-55.2264862
	c-1.6807861,46.1021118-23.7713928,91.2437592-63.1502838,128.4616241
	c-12.966217,12.2458801-27.1330261,23.0510559-42.5003815,32.175415l-26.412674-7.2034607l-2.6412659,9.6046143
	l16.5679474,4.5621643c-28.33358,14.6470337-57.1473999,22.0905762-80.678688,19.9295654l-0.9604607,9.8447266
	c3.1214981,0.2401428,6.2429962,0.4802246,9.6046104,0.4802246c39.1387634,0,88.6025009-21.6103516,127.9813766-56.427063v8.4040527
	h9.8447113v-17.7685242c36.0172882-35.7771606,57.3875275-77.7973175,61.70961-121.0180511
	c9.3644714,28.3336029,8.8842468,56.1869659-1.200592,82.5996246l-19.2092133,3.8418427l1.920929,9.6046143l12.72612-2.4011536
	c-26.412674,54.5061493-86.9216919,88.3623505-107.0913696,96.2861786l3.6017303,9.1243896
	c14.4069061-5.5226746,48.2631378-23.7713928,77.0769653-52.8253479l0.4802246,10.0848389l9.8447113-0.2401428
	l-0.7203522-19.9295654c12.9662323-14.4069214,23.0510712-30.7347412,30.2545013-48.7433777
	c10.3249817-26.412674,11.7656555-55.4665985,4.0819702-82.8397369
	c23.7713928,38.1783142,27.3731079,85.4809875,9.6045837,126.7808075l-17.7685242,3.6017456l1.920929,9.6045837l10.565094-2.1610107
	c-35.7771759,66.2717896-118.136673,91.2437744-184.6485901,56.427063l-4.5621872,8.644165
	c11.7656479,6.0028687,24.0115128,10.5650635,36.9777374,13.4464722l-10.8051834,10.8051758l6.9633484,6.9633179
	l15.6074753-15.6074829c18.4888611,2.6412964,37.217865,1.6807861,55.2265015-2.8813782l-4.8023071,14.6470337l9.3644867,3.121521
	l7.2034607-21.1301575c46.3422241-15.8475952,81.6391602-53.305542,94.6053772-100.6082764
	c4.0819397,6.2430115,8.644165,13.4464722,9.6046143,14.887146l8.1639099-5.5226746
	c-1.4407043-2.1610107-11.5255432-18.0086365-14.887146-22.8109131
	C308.0677795,250.4407043,308.7881165,238.1948242,307.8276367,226.1890564z"/>
<path class="st1" d="M671.4750977,357.1953125c-2.4038086,0-4.8339844-0.0810547-7.2236328-0.2392578l-2.8916016-0.1914062
	l0.3837891-5.7832031l2.8916016,0.1914062c3.1982422,0.2128906,6.4379883,0.2744141,9.671875,0.1875l2.8969727-0.0791016
	l0.1572266,5.7939453l-2.8969727,0.078125C673.465332,357.1806641,672.4692383,357.1953125,671.4750977,357.1953125z
	 M691.8710938,355.3720703l-1.1650391-5.6777344l2.8388672-0.5830078c3.1845703-0.6533203,6.34375-1.4511719,9.3891602-2.3701172
	l2.7744141-0.8369141l1.6743164,5.5488281l-2.7739258,0.8369141c-3.2128906,0.9697266-6.543457,1.8105469-9.8989258,2.4990234
	L691.8710938,355.3720703z M646.8950195,354.4150391l-2.8032227-0.7363281
	c-3.2900391-0.8632812-6.5722656-1.8955078-9.7548828-3.0664062l-2.7192383-1.0009766l2.0014648-5.4394531l2.7197266,1.0009766
	c3.0092773,1.1074219,6.112793,2.0830078,9.2246094,2.9003906l2.8027344,0.7353516L646.8950195,354.4150391z
	 M1156.5322266,350.6669922c-0.484375,0-0.9677734-0.0048828-1.4511719-0.0117188l-2.8974609-0.0419922l0.0839844-5.7949219
	l2.8974609,0.0419922c3.2285156,0.0488281,6.4746094-0.0761719,9.6347656-0.3632812l2.8857422-0.2626953l0.5253906,5.7714844
	l-2.8857422,0.2626953C1162.4375,350.53125,1159.4794922,350.6650391,1156.5322266,350.6669922z M1137.6142578,348.9277344
	l-2.8339844-0.6083984c-3.2919922-0.7060547-6.6132812-1.5810547-9.8720703-2.5996094l-2.7666016-0.8642578l1.7294922-5.5322266
	l2.765625,0.8652344c3.0908203,0.9658203,6.2402344,1.7949219,9.359375,2.4648438l2.8339844,0.6074219L1137.6142578,348.9277344z
	 M1182.6503906,347.0878906l-1.7646484-5.5205078l2.7597656-0.8828125c1.578125-0.5039062,3.1679688-1.0634766,4.7236328-1.6621094
	c1.4267578-0.546875,2.8710938-1.140625,4.2958984-1.7636719l2.6552734-1.1611328l2.3222656,5.3105469l-2.6552734,1.1611328
	c-1.5058594,0.6582031-3.0332031,1.2851562-4.5400391,1.8632812c-1.6572266,0.6376953-3.3525391,1.234375-5.0361328,1.7724609
	L1182.6503906,347.0878906z M720.9516602,345.8642578l-2.7426758-5.1054688l2.5527344-1.3710938
	c2.8198242-1.5146484,5.5966797-3.1943359,8.2543945-4.9931641l2.3999023-1.6240234l3.2480469,4.8007812l-2.3999023,1.6240234
	c-2.8198242,1.9082031-5.7670898,3.6904297-8.7592773,5.2978516L720.9516602,345.8642578z M618.4130859,343.2578125
	l-2.4790039-1.5009766c-2.9003906-1.7558594-5.7539062-3.6757812-8.4799805-5.7050781l-2.324707-1.7294922l3.4609375-4.6494141
	l2.324707,1.7304688c2.5786133,1.9189453,5.2773438,3.734375,8.0209961,5.3964844l2.4790039,1.5009766L618.4130859,343.2578125z
	 M1108.640625,339.3115234l-2.5791016-1.3212891c-2.9970703-1.5361328-5.9794922-3.2207031-8.8652344-5.0097656
	l-2.4638672-1.5263672l3.0537109-4.9267578l2.4628906,1.5273438c2.7529297,1.7050781,5.5976562,3.3134766,8.4550781,4.7773438
	l2.5791016,1.3212891L1108.640625,339.3115234z M1210.4453125,334.3515625l-3.2421875-4.8046875l2.4023438-1.6210938
	c2.65625-1.7919922,5.2783203-3.7314453,7.7949219-5.765625l2.2529297-1.8212891l3.6435547,4.5068359l-2.2529297,1.8222656
	c-2.6455078,2.1376953-5.4033203,4.1777344-8.1962891,6.0625L1210.4453125,334.3515625z M745.9213867,328.1826172
	l-4.1279297-4.0683594l2.0341797-2.0644531c2.2392578-2.2724609,4.4121094-4.6953125,6.4575195-7.2011719l1.8320312-2.2451172
	l4.4902344,3.6640625l-1.8320312,2.2451172c-2.1591797,2.6464844-4.4541016,5.2050781-6.8198242,7.6054688L745.9213867,328.1826172z
	 M594.2705078,324.4970703l-1.9550781-2.1386719c-2.2871094-2.5019531-4.4833984-5.1455078-6.5268555-7.8574219
	l-1.7441406-2.3144531l4.628418-3.4882812l1.7446289,2.3144531c1.9335938,2.5654297,4.0117188,5.0673828,6.1762695,7.4355469
	l1.9550781,2.1386719L594.2705078,324.4970703z M1083.0039062,322.8212891l-2.1904297-1.8974609
	c-2.5537109-2.2099609-5.0507812-4.5527344-7.4248047-6.9638672l-2.0332031-2.0644531l4.1289062-4.0673828l2.0341797,2.0654297
	c2.2666016,2.3017578,4.6513672,4.5390625,7.0878906,6.6494141l2.1914062,1.8964844L1083.0039062,322.8212891z
	 M1233.8261719,314.7597656l-4.3359375-3.8457031l1.9228516-2.1679688c2.1308594-2.4023438,4.2001953-4.9326172,6.1503906-7.5214844
	l1.7441406-2.3144531l4.6289062,3.4882812l-1.7441406,2.3144531c-2.0429688,2.7109375-4.2099609,5.3613281-6.4433594,7.8789062
	L1233.8261719,314.7597656z M764.7910156,304.1630859l-5.0634766-2.8193359l1.4091797-2.5322266
	c1.5566406-2.7949219,3.0234375-5.7119141,4.3613281-8.6708984L766.6914062,287.5l5.28125,2.3867188l-1.1933594,2.640625
	c-1.4033203,3.1054688-2.9443359,6.1689453-4.578125,9.1044922L764.7910156,304.1630859z M1062.0039062,300.6972656
	l-1.6591797-2.375c-1.9287109-2.7597656-3.7695312-5.6542969-5.4736328-8.6035156l-1.4492188-2.5087891l5.0185547-2.8994141
	l1.4501953,2.5097656c1.6201172,2.8046875,3.3710938,5.5576172,5.2050781,8.1816406l1.6591797,2.3759766L1062.0039062,300.6972656z
	 M576.3652344,299.7275391l-1.2851562-2.5976562c-1.4995117-3.03125-2.8793945-6.1767578-4.1010742-9.3496094l-1.0415039-2.7050781
	l5.4082031-2.0830078l1.0419922,2.7041016c1.1582031,3.0087891,2.4663086,5.9912109,3.8876953,8.8632812l1.284668,2.5976562
	L576.3652344,299.7275391z M1251.7617188,290.1289062l-5.1123047-2.7294922l1.3642578-2.5566406
	c1.5205078-2.8476562,2.9492188-5.7910156,4.2460938-8.7490234l1.1640625-2.6533203l5.3085938,2.3271484l-1.1640625,2.6542969
	c-1.3574219,3.09375-2.8515625,6.171875-4.4414062,9.1513672L1251.7617188,290.1289062z M776.8828125,276.1738281
	l-5.5927734-1.5205078l0.7597656-2.7958984c0.8427734-3.1015625,1.5761719-6.2890625,2.1787109-9.4755859l0.5390625-2.8466797
	l5.6943359,1.0771484l-0.5380859,2.8476562c-0.6308594,3.3339844-1.3984375,6.6708984-2.2802734,9.9169922L776.8828125,276.1738281z
	 M1047.2080078,274.0244141l-1.0195312-2.7128906c-1.1816406-3.1455078-2.2587891-6.3945312-3.2011719-9.6582031
	l-0.8037109-2.7841797l5.5683594-1.6074219l0.8037109,2.7841797c0.9003906,3.1181641,1.9296875,6.2226562,3.0585938,9.2265625
	l1.0195312,2.7128906L1047.2080078,274.0244141z M565.9179688,271.0410156l-0.5615234-2.84375
	c-0.6538086-3.3076172-1.1796875-6.6943359-1.5629883-10.0644531l-0.3271484-2.8789062l5.7583008-0.6552734l0.3276367,2.8798828
	c0.3652344,3.2138672,0.8666992,6.4414062,1.4902344,9.5957031l0.5615234,2.8427734L565.9179688,271.0410156z
	 M1263.5283203,262.0244141l-5.6054688-1.4726562l0.7363281-2.8027344c0.8242188-3.1376953,1.5283203-6.3300781,2.09375-9.4868164
	l0.5107422-2.8525391l5.7050781,1.0209961l-0.5107422,2.8530273c-0.5917969,3.3081055-1.3300781,6.6518555-2.1933594,9.9379883
	L1263.5283203,262.0244141z M782.0537109,246.1469727l-5.7929688-0.1855469l0.0927734-2.8964844
	c0.0419922-1.3105469,0.0634766-2.621582,0.0634766-3.9326172c-0.0009766-1.9345703-0.046875-3.8813477-0.1367188-5.784668
	l-0.1367188-2.8950195l5.7900391-0.2724609l0.1357422,2.8950195c0.09375,1.9926758,0.1416016,4.0302734,0.1425781,6.0556641
	c0,1.3740234-0.0214844,2.7475586-0.0654297,4.1196289L782.0537109,246.1469727z M1039.2236328,244.6362305l-0.3759766-2.8735352
	c-0.4384766-3.3417969-0.7578125-6.7451172-0.9511719-10.1147461l-0.1650391-2.8935547l5.7861328-0.3305664l0.1660156,2.8930664
	c0.1845703,3.2294922,0.4912109,6.4902344,0.9101562,9.6928711l0.3769531,2.8730469L1039.2236328,244.6362305z
	 M568.7651367,240.9584961l-5.7905273-0.2485352l0.1240234-2.8950195c0.1435547-3.3408203,0.4150391-6.7470703,0.8076172-10.1245117
	l0.3344727-2.878418l5.7568359,0.6689453l-0.3344727,2.878418c-0.3759766,3.2382812-0.6362305,6.503418-0.7734375,9.7036133
	L568.7651367,240.9584961z M1268.34375,231.9262695l-5.7949219-0.0859375l0.0429688-2.8974609
	c0.0107422-0.7114258,0.0166016-1.4199219,0.0166016-2.1269531c0-2.5385742-0.0732422-5.0986328-0.2167969-7.609375
	l-0.1650391-2.8930664l5.7861328-0.3300781l0.1660156,2.8930664c0.1494141,2.6201172,0.2246094,5.2910156,0.2246094,7.9394531
	c0,0.7353516-0.0058594,1.4731445-0.0166016,2.2128906L1268.34375,231.9262695z M774.4023438,216.940918l-0.609375-2.8334961
	c-0.4365234-2.0283203-0.9316406-4.0600586-1.4726562-6.0385742c-0.3076172-1.1245117-0.6298828-2.2460938-0.9667969-3.3632812
	l-0.8369141-2.7744141l5.5498047-1.6728516l0.8359375,2.7744141c0.3505859,1.1635742,0.6865234,2.3325195,1.0087891,3.5063477
	c0.5683594,2.0825195,1.0898438,4.2182617,1.5478516,6.3491211l0.609375,2.8334961L774.4023438,216.940918z
	 M1043.7294922,214.7421875l-5.7734375-0.5102539l0.2548828-2.8862305c0.2978516-3.3740234,0.7226562-6.765625,1.2617188-10.0810547
	l0.4648438-2.8603516l5.7207031,0.9296875l-0.4648438,2.8603516c-0.5166016,3.1767578-0.9228516,6.4277344-1.2089844,9.6616211
	L1043.7294922,214.7421875z M572.5102539,212.0014648l-5.6166992-1.4291992l0.7143555-2.8081055
	c0.8203125-3.2241211,1.7612305-6.4975586,2.7963867-9.7294922l0.8837891-2.7592773l5.5200195,1.7675781l-0.8842773,2.7602539
	c-0.9995117,3.1201172-1.9077148,6.2792969-2.6987305,9.3896484L572.5102539,212.0014648z M1260.4462891,202.7998047
	l-0.5917969-2.8369141c-0.6572266-3.1518555-1.4443359-6.324707-2.3369141-9.4287109l-0.8007812-2.7851562l5.5703125-1.6020508
	l0.8007812,2.7851562c0.9326172,3.2416992,1.7539062,6.5546875,2.4404297,9.847168l0.5917969,2.8364258L1260.4462891,202.7998047z
	 M765.6425781,189.1342773l-1.2128906-2.6318359c-1.34375-2.9145508-2.8154297-5.8486328-4.3759766-8.7202148l-1.3828125-2.5463867
	l5.0927734-2.7666016l1.3837891,2.5463867c1.6201172,2.9829102,3.1494141,6.03125,4.5458984,9.0600586l1.2128906,2.6318359
	L765.6425781,189.1342773z M1048.8398438,186.0463867l-5.5126953-1.7875977l0.8935547-2.7568359
	c1.0341797-3.1879883,2.2167969-6.3999023,3.5146484-9.5458984l1.1054688-2.6787109l5.3574219,2.2104492l-1.1054688,2.6791992
	c-1.2412109,3.0073242-2.3710938,6.0771484-3.3583984,9.1230469L1048.8398438,186.0463867z M581.7514648,184.1796875
	l-5.2895508-2.3686523l1.184082-2.6450195c1.359375-3.0351562,2.8266602-6.0991211,4.3618164-9.1064453l1.3173828-2.5810547
	l5.1621094,2.6347656l-1.3173828,2.5810547c-1.4902344,2.9204102-2.9150391,5.8945312-4.2338867,8.840332L581.7514648,184.1796875z
	 M1251.9990234,174.9350586l-1.1914062-2.6420898c-1.3183594-2.9272461-2.765625-5.8691406-4.3007812-8.7446289
	l-1.3642578-2.5566406l5.1123047-2.7294922l1.3652344,2.5566406c1.5957031,2.9892578,3.0996094,6.0483398,4.4716797,9.0932617
	l1.1914062,2.6416016L1251.9990234,174.9350586z M751.3710938,163.5820312l-1.6816406-2.3598633
	c-1.8710938-2.6264648-3.8569336-5.253418-5.9013672-7.8085938l-1.8105469-2.262207l4.5253906-3.621582l1.8105469,2.2626953
	c2.1113281,2.6381836,4.1630859,5.3525391,6.0966797,8.0664062l1.6816406,2.3603516L751.3710938,163.5820312z
	 M1060.3261719,159.2456055l-4.9960938-2.9389648l1.4697266-2.4975586c1.6748047-2.8466797,3.4931641-5.7270508,5.4052734-8.5615234
	l1.6201172-2.4023438l4.8056641,3.2407227l-1.6210938,2.402832c-1.8457031,2.7363281-3.5996094,5.5146484-5.2138672,8.2587891
	L1060.3261719,159.2456055z M595.3662109,158.1132812l-4.8886719-3.112793l1.5566406-2.4448242
	c1.7861328-2.8051758,3.6728516-5.625,5.6069336-8.3808594l1.6650391-2.371582l4.7441406,3.3295898l-1.6650391,2.3720703
	c-1.8847656,2.6850586-3.7226562,5.4316406-5.4624023,8.1640625L595.3662109,158.1132812z M1237.921875,149.3120117
	l-1.6679688-2.3691406c-1.8505859-2.6279297-3.8203125-5.265625-5.8535156-7.8388672l-1.796875-2.2739258l4.546875-3.5932617
	l1.796875,2.2734375c2.0996094,2.6567383,4.1337891,5.3808594,6.0449219,8.0957031l1.6689453,2.3696289L1237.921875,149.3120117z
	 M732.7900391,140.8510742l-2.0371094-2.0610352c-2.2734375-2.3012695-4.6503906-4.5913086-7.0634766-6.8066406
	l-2.1352539-1.9594727l3.9194336-4.2700195l2.1347656,1.9599609c2.4824219,2.2783203,4.9277344,4.6347656,7.2675781,7.0019531
	l2.0366211,2.0615234L732.7900391,140.8510742z M1076.9736328,135.1025391l-4.4335938-3.7329102l1.8662109-2.2172852
	c2.109375-2.5058594,4.3515625-5.0488281,6.6640625-7.559082l1.9638672-2.1313477l4.2626953,3.9267578l-1.9638672,2.1313477
	c-2.2539062,2.4472656-4.4384766,4.925293-6.4931641,7.3652344L1076.9736328,135.1025391z M612.5043945,134.1474609
	l-4.4365234-3.7294922l1.8647461-2.2182617c2.1518555-2.5595703,4.3896484-5.1074219,6.6513672-7.5737305l1.9584961-2.1362305
	l4.2719727,3.9174805l-1.9589844,2.1357422c-2.2055664,2.4052734-4.3881836,4.8901367-6.4863281,7.3862305L612.5043945,134.1474609z
	 M1219.4960938,126.4482422l-2.0136719-2.0834961c-2.2412109-2.3193359-4.5898438-4.644043-6.9804688-6.9091797
	l-2.1035156-1.9931641l3.9863281-4.2070312l2.1035156,1.9931641c2.4521484,2.3232422,4.8613281,4.7080078,7.1621094,7.0883789
	l2.0136719,2.0834961L1219.4960938,126.4482422z M308.546875,122.9584961l-3.6108398-4.5336914l2.2670898-1.8056641
	c2.6132812-2.081543,5.300293-4.1420898,7.9853516-6.1245117l2.331543-1.7211914l3.4423828,4.6625977l-2.331543,1.7216797
	c-2.628418,1.9404297-5.2587891,3.9580078-7.8173828,5.9956055L308.546875,122.9584961z M710.9326172,121.1542969
	l-2.3071289-1.7539062c-2.5893555-1.96875-5.2636719-3.9101562-7.9487305-5.7705078l-2.3818359-1.6499023l3.300293-4.7641602
	l2.3823242,1.6499023c2.7548828,1.9086914,5.4985352,3.9003906,8.1557617,5.9204102l2.3071289,1.7539062L710.9326172,121.1542969z
	 M1097.1074219,113.5537109l-3.9580078-4.234375l2.1162109-1.9790039c2.3740234-2.21875,4.8779297-4.4868164,7.4414062-6.7421875
	l2.1767578-1.9135742l3.8271484,4.3520508l-2.1757812,1.9140625c-2.5205078,2.2163086-4.9804688,4.4448242-7.3115234,6.6240234
	L1097.1074219,113.5537109z M632.6020508,112.5517578l-3.9663086-4.2260742l2.1132812-1.9833984
	c2.4213867-2.2724609,4.9272461-4.5439453,7.4477539-6.75l2.1801758-1.9091797l3.8178711,4.3608398l-2.1806641,1.9086914
	c-2.4697266,2.1630859-4.9257812,4.3886719-7.2993164,6.6162109L632.6020508,112.5517578z M1197.9384766,106.3388672
	l-2.2548828-1.8208008c-2.5029297-2.0219727-5.1181641-4.0571289-7.7724609-6.0483398l-2.3183594-1.7387695l3.4785156-4.6362305
	l2.3183594,1.7387695c2.7089844,2.0327148,5.3789062,4.1103516,7.9365234,6.1757812l2.2539062,1.8208008L1197.9384766,106.3388672z
	 M332.4375,105.5917969l-3.0961914-4.8999023l2.4501953-1.5478516c2.8139648-1.7783203,5.7070312-3.5341797,8.5981445-5.21875
	l2.5039062-1.4589844l2.9179688,5.0078125l-2.5039062,1.4589844c-2.831543,1.6499023-5.6645508,3.3691406-8.4204102,5.1103516
	L332.4375,105.5917969z M686.5732422,104.5932617l-2.5161133-1.4379883
	c-2.8398438-1.6220703-5.7446289-3.2001953-8.6333008-4.6894531l-2.5761719-1.3276367l2.6557617-5.1518555l2.5756836,1.328125
	c2.9628906,1.5268555,5.9414062,3.1450195,8.8530273,4.8085938l2.5161133,1.4375L686.5732422,104.5932617z M1119.4433594,94.0854492
	l-3.6113281-4.5332031l2.2666016-1.8056641c1.4980469-1.1933594,2.9980469-2.3740234,4.4990234-3.5429688
	c1.1279297-0.8769531,2.2587891-1.7490234,3.3935547-2.6157227l2.3027344-1.7587891l3.5175781,4.6064453l-2.3027344,1.7587891
	c-1.1210938,0.855957-2.2382812,1.7172852-3.3515625,2.5834961c-1.484375,1.1552734-2.9667969,2.3222656-4.4472656,3.5019531
	L1119.4433594,94.0854492z M654.9628906,93.2470703l-3.5151367-4.6079102l0.8701172-0.6635742
	c-1.2910156-0.5283203-2.5844727-1.0498047-3.8745117-1.5620117L645.75,85.3442383l2.1381836-5.3867188l2.6938477,1.0693359
	c2.3696289,0.9404297,4.7519531,1.9125977,7.1079102,2.9003906c1.3701172-1.0107422,2.753418-2.0141602,4.1401367-3.0024414
	l2.359375-1.6826172l3.3647461,4.7192383l-2.3598633,1.6821289c-1.2275391,0.8754883-2.4521484,1.7626953-3.6674805,2.6557617
	l-1.2822266,3.0092773l-1.7539062-0.7475586c-0.409668,0.3095703-0.8178711,0.6191406-1.2236328,0.9287109L654.9628906,93.2470703z
	 M358.0634766,90.90625l-2.5571289-5.2011719l2.6005859-1.2788086c2.9980469-1.4736328,6.0585938-2.9130859,9.097168-4.2773438
	l2.6435547-1.1870117l2.3745117,5.2871094l-2.644043,1.1870117c-2.9770508,1.3369141-5.9760742,2.7470703-8.9140625,4.1914062
	L358.0634766,90.90625z M1174.1835938,88.7426758l-2.4248047-1.5869141c-2.71875-1.7797852-5.5234375-3.5581055-8.3369141-5.2851562
	l-2.4697266-1.5166016l3.0332031-4.9389648l2.4697266,1.5166016c2.8603516,1.7563477,5.7128906,3.5644531,8.4775391,5.3745117
	l2.4248047,1.5874023L1174.1835938,88.7426758z M632.6489258,80.515625l-2.7426758-0.9355469
	c-3.1054688-1.0585938-6.2646484-2.0927734-9.3896484-3.0732422l-2.7651367-0.8676758l1.7353516-5.5302734l2.7651367,0.8676758
	c3.1699219,0.9951172,6.3745117,2.0439453,9.5244141,3.1181641l2.7431641,0.9350586L632.6489258,80.515625z M385.0942383,78.9838867
	l-2.0126953-5.4350586l2.7177734-1.0063477c3.1098633-1.1513672,6.2983398-2.2724609,9.4760742-3.331543l2.7490234-0.9160156
	l1.8325195,5.4985352l-2.7495117,0.9165039c-3.1171875,1.0385742-6.2446289,2.1386719-9.2954102,3.2680664L385.0942383,78.9838867z
	 M679.1401367,76.2475586l-3.0615234-4.9208984l2.4604492-1.5307617c2.8046875-1.7451172,5.6953125-3.4833984,8.5922852-5.1669922
	l2.5053711-1.456543l2.9125977,5.0112305l-2.5058594,1.4560547c-2.8466797,1.6547852-5.6870117,3.362793-8.4428711,5.0771484
	L679.1401367,76.2475586z M1143.0810547,76.1713867l-3.3105469-4.7573242l2.3730469-1.6513672
	c-1.5244141-0.8041992-3.0566406-1.6000977-4.5859375-2.3823242l-2.5800781-1.3193359l2.6386719-5.1601562l2.5800781,1.3193359
	c2.4570312,1.2563477,4.921875,2.5483398,7.3486328,3.8515625c0.9677734-0.6499023,1.9384766-1.2944336,2.9072266-1.9316406
	l2.4208984-1.5927734l3.1855469,4.8417969l-2.4208984,1.5927734c-1.2539062,0.824707-2.5097656,1.6621094-3.7607422,2.5068359
	l-1.0224609,1.8837891l-0.9726562-0.527832c-0.8115234,0.5551758-1.6201172,1.112793-2.421875,1.6708984L1143.0810547,76.1713867z
	 M604.3295898,71.7841797l-2.8037109-0.7319336c-3.1674805-0.8271484-6.3935547-1.6269531-9.5893555-2.3779297l-2.8212891-0.6630859
	l1.3261719-5.6425781l2.8212891,0.6630859c3.2416992,0.762207,6.5141602,1.5737305,9.7270508,2.4125977l2.8041992,0.7314453
	L604.3295898,71.7841797z M413.1958008,69.824707l-1.4760742-5.6049805l2.8027344-0.737793
	c3.2158203-0.8466797,6.4946289-1.6557617,9.746582-2.4038086l2.8242188-0.6499023l1.2998047,5.6484375l-2.8242188,0.6499023
	c-3.1933594,0.734375-6.4130859,1.5288086-9.5708008,2.3598633L413.1958008,69.824707z M575.4482422,65.1503906
	l-2.8500977-0.5239258c-3.2211914-0.5922852-6.4970703-1.1523438-9.7368164-1.6650391l-2.8623047-0.453125l0.90625-5.7246094
	l2.8623047,0.453125c3.2866211,0.5200195,6.6103516,1.0888672,9.878418,1.6894531l2.8500977,0.5239258L575.4482422,65.1503906z
	 M442.0532227,63.3681641l-0.9555664-5.7163086l2.8579102-0.4780273c3.2797852-0.5478516,6.6171875-1.0556641,9.9194336-1.5083008
	l2.8710938-0.3935547l0.7871094,5.7421875l-2.8710938,0.3935547c-3.246582,0.4453125-6.5268555,0.9438477-9.7509766,1.4829102
	L442.0532227,63.3681641z M704.7973633,61.5380859l-2.6171875-5.1708984l2.5854492-1.3085938
	c2.9482422-1.4921875,5.9760742-2.9726562,8.9995117-4.3994141l2.6206055-1.2373047l2.4741211,5.2416992l-2.6210938,1.2368164
	c-2.9750977,1.4042969-5.9545898,2.8613281-8.855957,4.3291016L704.7973633,61.5380859z M546.1616211,60.6713867
	l-2.8813477-0.309082c-3.2705078-0.3505859-6.5786133-0.6625977-9.8325195-0.9282227l-2.8886719-0.2353516l0.4711914-5.7768555
	l2.8886719,0.2358398c3.3027344,0.269043,6.6601562,0.5859375,9.9785156,0.9418945l2.8818359,0.3085938L546.1616211,60.6713867z
	 M1167.9111328,60.0263672l-2.9287109-5.0014648l2.5-1.4643555c2.8759766-1.684082,5.8085938-3.3505859,8.7177734-4.953125
	l2.5380859-1.3984375l2.796875,5.0761719l-2.5380859,1.3984375c-2.8652344,1.5786133-5.7539062,3.2197266-8.5849609,4.8779297
	L1167.9111328,60.0263672z M1122.3857422,59.9887695l-2.6376953-1.1992188
	c-2.9736328-1.3515625-6.0107422-2.6928711-9.0273438-3.9863281l-2.6630859-1.1425781l2.2841797-5.3266602l2.6640625,1.1420898
	c3.0546875,1.3100586,6.1298828,2.668457,9.140625,4.0371094l2.6386719,1.1992188L1122.3857422,59.9887695z M471.3881836,59.5205078
	l-0.4575195-5.777832l2.8886719-0.2285156c3.3022461-0.2617188,6.6694336-0.4814453,10.0073242-0.6523438l2.894043-0.1484375
	l0.296875,5.7880859l-2.894043,0.1484375c-3.284668,0.168457-6.5976562,0.3842773-9.8461914,0.6420898L471.3881836,59.5205078z
	 M516.6264648,58.4233398l-2.8964844-0.0859375c-3.2822266-0.097168-6.6035156-0.1508789-9.8710938-0.1606445l-2.8979492-0.0083008
	l0.0170898-5.7958984l2.8979492,0.0083008c3.3188477,0.0097656,6.6918945,0.0649414,10.0253906,0.1635742l2.8964844,0.0854492
	L516.6264648,58.4233398z M731.6303711,49.0527344L729.4384766,43.6875l2.6831055-1.0957031
	c3.0629883-1.2509766,6.1967773-2.4848633,9.3154297-3.6669922l2.7094727-1.027832l2.0551758,5.4194336l-2.7099609,1.0273438
	c-3.0727539,1.1650391-6.1611328,2.3808594-9.1787109,3.6132812L731.6303711,49.0527344z M1095.0732422,48.4145508
	l-2.7080078-1.0307617c-3.0439453-1.1591797-6.1689453-2.3120117-9.2861328-3.4272461l-2.7285156-0.9755859l1.9511719-5.4575195
	l2.7285156,0.9760742c3.1552734,1.1279297,6.3164062,2.2944336,9.3974609,3.4672852l2.7080078,1.03125L1095.0732422,48.4145508z
	 M1193.9257812,45.8725586l-2.5263672-5.2163086l2.6074219-1.2626953c2.9951172-1.4506836,6.0498047-2.8808594,9.0800781-4.2509766
	l2.640625-1.1938477l2.3886719,5.28125l-2.640625,1.1938477c-2.984375,1.3491211-5.9931641,2.7573242-8.9423828,4.1860352
	L1193.9257812,45.8725586z M759.3759766,38.6918945l-1.7871094-5.5136719l2.7568359-0.8935547
	c3.1386719-1.0170898,6.3535156-2.0175781,9.5556641-2.9741211l2.7763672-0.8291016l1.6582031,5.5537109l-2.7763672,0.8291016
	c-3.1591797,0.9433594-6.3310547,1.9306641-9.4267578,2.934082L759.3759766,38.6918945z M1067.0664062,38.527832
	l-2.765625-0.8671875c-3.1357422-0.9829102-6.3242188-1.9472656-9.4755859-2.8657227l-2.7822266-0.8110352l1.6210938-5.5644531
	l2.7822266,0.8110352c3.1894531,0.9296875,6.4160156,1.9052734,9.5888672,2.8999023l2.7646484,0.8666992L1067.0664062,38.527832z
	 M1220.9765625,33.8261719l-2.1005859-5.4018555l2.7001953-1.050293c3.1083984-1.2094727,6.2695312-2.3896484,9.3955078-3.5087891
	l2.7285156-0.9765625l1.953125,5.456543l-2.7285156,0.9770508c-3.0761719,1.1010742-6.1875,2.2631836-9.2470703,3.453125
	L1220.9765625,33.8261719z M787.8134766,30.3457031l-1.4042969-5.6235352l2.8115234-0.7021484
	c3.2001953-0.7998047,6.4755859-1.5800781,9.7333984-2.3198242l2.8261719-0.6411133l1.2832031,5.6518555l-2.8261719,0.6416016
	c-3.2177734,0.7299805-6.4521484,1.5009766-9.6123047,2.2905273L787.8134766,30.3457031z M1038.5214844,30.340332
	l-2.8134766-0.6953125c-3.2138672-0.7944336-6.4550781-1.5571289-9.6337891-2.2680664l-2.828125-0.6323242l1.265625-5.65625
	l2.828125,0.6323242c3.2197266,0.7202148,6.5029297,1.4931641,9.7587891,2.2973633l2.8134766,0.6953125L1038.5214844,30.340332z
	 M1248.90625,24.0039062l-1.6513672-5.5556641l2.7773438-0.8256836c3.1933594-0.9492188,6.4414062-1.8657227,9.6542969-2.7241211
	l2.7998047-0.7480469L1263.9824219,19.75l-2.7998047,0.7480469c-3.1611328,0.8442383-6.3564453,1.7460938-9.4980469,2.6801758
	L1248.90625,24.0039062z M1009.53125,23.9902344l-2.8525391-0.5141602
	c-3.2148438-0.5800781-6.4980469-1.1386719-9.7568359-1.6606445l-2.8613281-0.4580078l0.9160156-5.7231445l2.8613281,0.4584961
	c3.2958984,0.527832,6.6171875,1.0927734,9.8701172,1.6791992l2.8515625,0.5146484L1009.53125,23.9902344z M816.7636719,23.9086914
	l-1.0429688-5.7011719l2.8505859-0.5214844c3.2441406-0.59375,6.5625-1.1655273,9.8623047-1.7001953l2.8603516-0.4628906
	l0.9267578,5.7211914l-2.8613281,0.4633789c-3.2607422,0.527832-6.5390625,1.0932617-9.7451172,1.6796875L816.7636719,23.9086914z
	 M1499.2402344,22.5351562l-2.8232422-0.6557617c-3.1982422-0.7431641-6.4482422-1.4672852-9.6601562-2.1518555
	l-2.8339844-0.6044922l1.2089844-5.668457l2.8339844,0.6044922c3.2460938,0.6918945,6.53125,1.4238281,9.7636719,2.1748047
	l2.8222656,0.6557617L1499.2402344,22.5351562z M980.2011719,19.4082031l-2.8769531-0.3491211
	c-3.2490234-0.3950195-6.5595703-0.765625-9.8388672-1.1015625l-2.8828125-0.2954102l0.5917969-5.765625l2.8828125,0.2954102
	c3.3144531,0.3398438,6.6611328,0.7143555,9.9462891,1.1132812l2.8769531,0.3496094L980.2011719,19.4082031z M846.0732422,19.284668
	L845.375,13.53125l2.8759766-0.3496094c3.2978516-0.4003906,6.6455078-0.7734375,9.9501953-1.109375l2.8828125-0.2929688
	l0.5859375,5.7666016l-2.8828125,0.2929688c-3.2675781,0.3320312-6.5771484,0.7006836-9.8369141,1.0966797L846.0732422,19.284668z
	 M1277.5439453,16.5307617l-1.1767578-5.6748047l2.8369141-0.5888672c3.2695312-0.6787109,6.5849609-1.3168945,9.8525391-1.8974609
	l2.8535156-0.5063477l1.0136719,5.706543l-2.8535156,0.5063477c-3.2128906,0.5708008-6.4726562,1.1987305-9.6884766,1.8657227
	L1277.5439453,16.5307617z M950.6533203,16.4912109l-2.8916016-0.1894531
	c-3.2724609-0.2143555-6.5986328-0.4013672-9.8857422-0.5566406l-2.8945312-0.1362305l0.2734375-5.7895508l2.8945312,0.1362305
	c3.3222656,0.1572266,6.6835938,0.3461914,9.9912109,0.5629883l2.8916016,0.1889648L950.6533203,16.4912109z
	 M1470.1796875,16.4516602l-2.8535156-0.5014648c-3.2431641-0.5693359-6.5283203-1.1157227-9.7626953-1.6240234l-2.8632812-0.449707
	l0.8994141-5.7255859l2.8623047,0.449707c3.2705078,0.5136719,6.5898438,1.065918,9.8662109,1.6416016l2.8544922,0.5009766
	L1470.1796875,16.4516602z M875.6201172,16.3950195l-0.3681641-5.7841797l2.8925781-0.1835938
	c3.3183594-0.2104492,6.6826172-0.3925781,10.0009766-0.5405273l2.8945312-0.1293945l0.2587891,5.7905273l-2.8955078,0.1289062
	c-3.28125,0.1464844-6.609375,0.3266602-9.8916016,0.534668L875.6201172,16.3950195z M920.9873047,15.2055664l-2.8984375-0.0307617
	c-3.2939453-0.0351562-6.5927734-0.0395508-9.8974609-0.0141602l-2.8984375,0.0224609l-0.0439453-5.7958984l2.8974609-0.0224609
	c3.3398438-0.0244141,6.6748047-0.0214844,10.0048828,0.0141602l2.8974609,0.03125L920.9873047,15.2055664z
	 M1440.8320312,11.9521484l-2.8769531-0.3466797c-3.2646484-0.3930664-6.5742188-0.7617188-9.8369141-1.0952148
	l-2.8828125-0.2944336l0.5898438-5.7661133l2.8828125,0.2949219c3.296875,0.3369141,6.6416016,0.7094727,9.9404297,1.1069336
	l2.8769531,0.3461914L1440.8320312,11.9521484z M1306.7060547,11.5302734l-0.6777344-5.7563477l2.8779297-0.3388672
	c1.1191406-0.1318359,2.2392578-0.2583008,3.359375-0.3798828c2.1992188-0.2373047,4.3974609-0.4619141,6.5976562-0.6723633
	l2.8847656-0.2758789l0.5527344,5.7695312l-2.8847656,0.2758789c-2.1767578,0.2084961-4.3525391,0.4301758-6.5273438,0.6650391
	c-1.1005859,0.1191406-2.203125,0.2436523-3.3046875,0.3735352L1306.7060547,11.5302734z M1411.2832031,9.0405273
	l-2.8916016-0.190918c-3.2851562-0.2172852-6.609375-0.4072266-9.8818359-0.5649414l-2.8945312-0.1396484l0.2792969-5.7890625
	l2.8945312,0.1396484c3.3056641,0.1591797,6.6660156,0.3515625,9.9853516,0.5708008l2.8916016,0.190918L1411.2832031,9.0405273z
	 M1336.2587891,8.7915039l-0.3447266-5.7856445l2.8935547-0.1723633c3.3115234-0.1977539,6.671875-0.3676758,9.9882812-0.5053711
	l2.8955078-0.1201172l0.2402344,5.7905273l-2.8955078,0.1206055c-3.28125,0.1362305-6.6074219,0.3046875-9.8837891,0.4995117
	L1336.2587891,8.7915039z M1381.6220703,7.7216797l-2.8974609-0.0356445
	c-3.2978516-0.0400391-6.5976562-0.0517578-9.8984375-0.0327148l-2.8984375,0.0161133l-0.0322266-5.7954102l2.8974609-0.0166016
	c3.3359375-0.019043,6.6689453-0.0083008,10.0019531,0.0332031l2.8974609,0.0356445L1381.6220703,7.7216797z"/>
</svg>
