<svg width="419.2" height="419.2" xmlns="http://www.w3.org/2000/svg">

 <g>
  <title>background</title>
  <rect fill="none" id="canvas_background" height="402" width="582" y="-1" x="-1"/>
 </g>
 <g>
  <title>Layer 1</title>
  <g stroke="#adad0f" fill="white" id="svg_1">
   <g id="svg_2">
    <g id="svg_3">
     <circle stroke="#ffffff" id="svg_4" r="28.8" cy="144.4" cx="158"/>
     <path stroke="#ffffff" id="svg_5" d="m394.4,250.4c-13.6,-12.8 -30.8,-21.2 -49.6,-23.6l0,-146.4c0,-15.6 -6.4,-29.6 -16.4,-40c-10.4,-10.4 -24.4,-16.4 -40,-16.4l-232,0c-15.6,0 -29.6,6.4 -40,16.4c-10.4,10.4 -16.4,24.4 -16.4,40l0,184.4l0,17.2l0,37.2c0,15.6 6.4,29.6 16.4,40c10.4,10.4 24.4,16.4 40,16.4l224.4,0c14.8,12 33.2,19.6 53.6,19.6c23.6,0 44.8,-9.6 60,-24.8c15.2,-15.2 24.8,-36.4 24.8,-60c0,-23.6 -9.6,-44.8 -24.8,-60zm-373.2,-170c0,-9.6 4,-18.4 10.4,-24.4c6.4,-6.4 15.2,-10.4 24.8,-10.4l232,0c9.6,0 18.4,4 24.8,10.4c6.4,6.4 10.4,15.2 10.4,24.8l0,124.8l-59.2,-59.2c-4,-4 -10.8,-4.4 -15.2,0l-89.2,89.6l-60.4,-60.8c-4,-4 -10.8,-4.4 -15.2,0l-63.2,64l0,-158.8zm34.8,274.8l0,-0.8c-9.6,0 -18.4,-4 -24.8,-10.4c-6,-6.4 -10,-15.2 -10,-24.8l0,-37.2l0,-12.4l70.8,-71.2l60.4,60.4c4,4 10.8,4 15.2,0l89.2,-89.6l58.4,58.8c-1.2,0.4 -2.4,0.8 -3.6,1.2c-1.6,0.4 -3.2,0.8 -5.2,1.6c-1.6,0.4 -3.2,1.2 -4.8,1.6c-1.2,0.4 -2,0.8 -3.2,1.6c-1.6,0.8 -2.8,1.2 -4,2c-2,1.2 -4,2.4 -6,3.6c-1.2,0.8 -2,1.2 -3.2,2c-0.8,0.4 -1.2,0.8 -2,1.2c-3.6,2.4 -6.8,5.2 -9.6,8.4c-15.2,15.2 -24.8,36.4 -24.8,60c0,6 0.8,11.6 2,17.6c0.4,1.6 0.8,2.8 1.2,4.4c1.2,4 2.4,8 4,12l0,0.4c1.6,3.2 3.2,6.8 5.2,9.6l-205.2,0zm322.8,0c-11.6,11.6 -27.2,18.4 -44.8,18.4c-16.8,0 -32.4,-6.8 -43.6,-17.6c-1.6,-1.6 -3.2,-3.6 -4.8,-5.2c-1.2,-1.2 -2.4,-2.8 -3.6,-4c-1.6,-2 -2.8,-4.4 -4,-6.8c-0.8,-1.6 -1.6,-2.8 -2.4,-4.4c-0.8,-2 -1.6,-4.4 -2,-6.8c-0.4,-1.6 -1.2,-3.6 -1.6,-5.2c-0.8,-4 -1.2,-8.4 -1.2,-12.8c0,-17.6 7.2,-33.2 18.4,-44.8c11.2,-11.6 27.2,-18.4 44.8,-18.4s33.2,7.2 44.8,18.4c11.6,11.6 18.4,27.2 18.4,44.8c0,17.2 -7.2,32.8 -18.4,44.4z"/>
     <path stroke="#ffffff" id="svg_6" d="m341.6,267.6c-0.8,-0.8 -2,-1.6 -3.6,-2.4c-1.2,-0.4 -2.4,-0.8 -3.6,-0.8c-0.4,0 -0.4,0 -0.4,0c-0.4,0 -0.4,0 -0.4,0c-1.2,0 -2.4,0.4 -3.6,0.8c-1.2,0.4 -2.4,1.2 -3.6,2.4l-24.8,24.8c-4,4 -4,10.8 0,15.2c4,4 10.8,4 15.2,0l6.4,-6.4l0,44c0,6 4.8,10.8 10.8,10.8s10.8,-4.8 10.8,-10.8l0,-44l6.4,6.4c4,4 10.8,4 15.2,0c4,-4 4,-10.8 0,-15.2l-24.8,-24.8z"/>
    </g>
   </g>
  </g>
  <g id="svg_7"/>
  <g id="svg_8"/>
  <g id="svg_9"/>
  <g id="svg_10"/>
  <g id="svg_11"/>
  <g id="svg_12"/>
  <g id="svg_13"/>
  <g id="svg_14"/>
  <g id="svg_15"/>
  <g id="svg_16"/>
  <g id="svg_17"/>
  <g id="svg_18"/>
  <g id="svg_19"/>
  <g id="svg_20"/>
  <g id="svg_21"/>
 </g>
</svg>